<svg xmlns="http://www.w3.org/2000/svg" viewBox="0 0 1457 776" role="img" aria-labelledby="title desc">
  <title id="title">Emerald Wellness logo</title>
  <desc id="desc">Emerald Wellness logo with the slogan Where Transformation Begins.</desc>
  <defs>
    <linearGradient id="emeraldLeft" x1="0" y1="0" x2="1" y2="1">
      <stop offset="0" stop-color="#1d7b4d"/>
      <stop offset="1" stop-color="#0e4e34"/>
    </linearGradient>
    <linearGradient id="emeraldRight" x1="0" y1="0" x2="1" y2="1">
      <stop offset="0" stop-color="#43d889"/>
      <stop offset="1" stop-color="#1b8c58"/>
    </linearGradient>
    <linearGradient id="emeraldBottom" x1="0" y1="0" x2="1" y2="1">
      <stop offset="0" stop-color="#38b978"/>
      <stop offset="1" stop-color="#17643f"/>
    </linearGradient>
    <linearGradient id="goldFacet" x1="0" y1="0" x2="1" y2="1">
      <stop offset="0" stop-color="#d8bd38"/>
      <stop offset="0.52" stop-color="#fff07a"/>
      <stop offset="1" stop-color="#c9a928"/>
    </linearGradient>
    <linearGradient id="brandGreen" x1="0" y1="0" x2="1" y2="1">
      <stop offset="0" stop-color="#43d889"/>
      <stop offset="1" stop-color="#21b76f"/>
    </linearGradient>
  </defs>

  <!-- transparent canvas -->
  <g id="gem-mark">
    <polygon points="209,0 421,119 421,383 209,502 0,383 0,119" fill="url(#emeraldRight)"/>
    <polygon points="0,119 209,0 209,252 0,252" fill="url(#emeraldLeft)"/>
    <polygon points="209,0 421,119 209,137" fill="#2fbf78" opacity=".82"/>
    <polygon points="0,252 209,185 421,252 209,317" fill="url(#goldFacet)"/>
    <polygon points="0,252 209,317 0,383" fill="#0d5637" opacity=".86"/>
    <polygon points="209,317 421,252 421,383" fill="#36c680" opacity=".88"/>
    <polygon points="0,383 209,317 421,383 298,453 119,453" fill="url(#emeraldBottom)"/>
    <path d="M209 0v317" stroke="#ffffff" stroke-opacity=".08" stroke-width="2"/>
    <path d="M0 252h421" stroke="#ffffff" stroke-opacity=".08" stroke-width="2"/>
  </g>

  <g id="wordmark">
    <text x="525" y="276"
          font-family="Georgia, 'Times New Roman', serif"
          font-size="104"
          font-weight="700"
          letter-spacing="10"
          fill="url(#brandGreen)">EMERALD</text>
    <text x="525" y="404"
          font-family="Georgia, 'Times New Roman', serif"
          font-size="104"
          font-weight="700"
          letter-spacing="10"
          fill="url(#brandGreen)">WELLNESS</text>
    <line x1="525" y1="443" x2="1315" y2="443" stroke="#c9a928" stroke-width="2"/>
    <text x="728" y="548"
          font-family="Arial, Helvetica, sans-serif"
          font-size="34"
          font-weight="500"
          letter-spacing="11"
          fill="#000000">Where Transformation Begins</text>
  </g>

  <g id="subtle-brand-glow" opacity=".18">
    <ellipse cx="209" cy="740" rx="154" ry="36" fill="#40d888"/>
    <ellipse cx="209" cy="740" rx="10" ry="4" fill="none" stroke="#0f5f3e" stroke-width="2"/>
  </g>
</svg>
